<svg width="58" height="27" viewBox="0 0 58 27" fill="none" xmlns="http://www.w3.org/2000/svg">
<path d="M0.50007 1.99999C0.500073 0.895427 1.3955 0 2.50007 0L23.5446 0C25.344 0 26.2282 2.19067 24.9329 3.43969L3.88828 23.7327C2.61824 24.9574 0.500008 24.0574 0.500013 22.293L0.50007 1.99999Z" fill="url(#paint0_linear_19_872)"/>
<path d="M29.5001 1.99999C29.5001 0.895427 30.3955 0 31.5001 0L52.5446 0C54.344 0 55.2282 2.19067 53.9329 3.43969L32.8883 23.7327C31.6182 24.9574 29.5 24.0574 29.5 22.293L29.5001 1.99999Z" fill="url(#paint1_linear_19_872)"/>
<defs>
<linearGradient id="paint0_linear_19_872" x1="14.5" y1="0" x2="-4.42935" y2="27.4553" gradientUnits="userSpaceOnUse">
<stop stop-color="#282828"/>
<stop offset="1" stop-color="#737373"/>
</linearGradient>
<linearGradient id="paint1_linear_19_872" x1="43.5" y1="0" x2="24.5707" y2="27.4553" gradientUnits="userSpaceOnUse">
<stop stop-color="#282828"/>
<stop offset="1" stop-color="#737373"/>
</linearGradient>
</defs>
</svg>
