<svg width="38" height="38" viewBox="0 0 38 38" fill="none" xmlns="http://www.w3.org/2000/svg">
<path d="M3.58337 5.125H12.8334C14.4689 5.125 16.0374 5.7747 17.1939 6.93117C18.3503 8.08765 19 9.65616 19 11.2917V32.875C19 31.6484 18.5128 30.472 17.6454 29.6046C16.7781 28.7373 15.6017 28.25 14.375 28.25H3.58337V5.125Z" stroke="white" stroke-width="2" stroke-linecap="round" stroke-linejoin="round"/>
<path d="M34.4167 5.125H25.1667C23.5312 5.125 21.9626 5.7747 20.8062 6.93117C19.6497 8.08765 19 9.65616 19 11.2917V32.875C19 31.6484 19.4873 30.472 20.3546 29.6046C21.222 28.7373 22.3984 28.25 23.625 28.25H34.4167V5.125Z" stroke="white" stroke-width="2" stroke-linecap="round" stroke-linejoin="round"/>
</svg>
