<svg width="35" height="34" viewBox="0 0 35 34" fill="none" xmlns="http://www.w3.org/2000/svg">
<path d="M28.8333 9.91675H6.16667C4.60186 9.91675 3.33334 11.1853 3.33334 12.7501V26.9167C3.33334 28.4816 4.60186 29.7501 6.16667 29.7501H28.8333C30.3981 29.7501 31.6667 28.4816 31.6667 26.9167V12.7501C31.6667 11.1853 30.3981 9.91675 28.8333 9.91675Z" stroke="white" stroke-width="2" stroke-linecap="round" stroke-linejoin="round"/>
<path d="M23.1667 29.75V7.08333C23.1667 6.33189 22.8682 5.61122 22.3368 5.07986C21.8055 4.54851 21.0848 4.25 20.3333 4.25H14.6667C13.9152 4.25 13.1946 4.54851 12.6632 5.07986C12.1318 5.61122 11.8333 6.33189 11.8333 7.08333V29.75" stroke="white" stroke-width="2" stroke-linecap="round" stroke-linejoin="round"/>
</svg>
