<svg width="37" height="38" viewBox="0 0 37 38" fill="none" xmlns="http://www.w3.org/2000/svg">
<path d="M21.5833 3.58325H9.25C8.43225 3.58325 7.64799 3.9081 7.06975 4.48634C6.49151 5.06458 6.16666 5.84883 6.16666 6.66659V31.3333C6.16666 32.151 6.49151 32.9353 7.06975 33.5135C7.64799 34.0917 8.43225 34.4166 9.25 34.4166H27.75C28.5677 34.4166 29.352 34.0917 29.9302 33.5135C30.5085 32.9353 30.8333 32.151 30.8333 31.3333V12.8333L21.5833 3.58325Z" stroke="white" stroke-width="2" stroke-linecap="round" stroke-linejoin="round"/>
<path d="M21.5833 3.58325V12.8333H30.8333" stroke="white" stroke-width="2" stroke-linecap="round" stroke-linejoin="round"/>
<path d="M24.6667 20.5417H12.3333" stroke="white" stroke-width="2" stroke-linecap="round" stroke-linejoin="round"/>
<path d="M24.6667 26.7083H12.3333" stroke="white" stroke-width="2" stroke-linecap="round" stroke-linejoin="round"/>
<path d="M15.4167 14.375H13.875H12.3333" stroke="white" stroke-width="2" stroke-linecap="round" stroke-linejoin="round"/>
</svg>
