<svg width="35" height="34" viewBox="0 0 35 34" fill="none" xmlns="http://www.w3.org/2000/svg">
<g clip-path="url(#clip0_17_456)">
<path d="M24.5833 29.75V26.9167C24.5833 25.4138 23.9863 23.9724 22.9236 22.9097C21.8609 21.847 20.4196 21.25 18.9167 21.25H7.58334C6.08045 21.25 4.63911 21.847 3.5764 22.9097C2.51369 23.9724 1.91667 25.4138 1.91667 26.9167V29.75" stroke="white" stroke-width="2" stroke-linecap="round" stroke-linejoin="round"/>
<path d="M13.25 15.5833C16.3796 15.5833 18.9167 13.0463 18.9167 9.91667C18.9167 6.78705 16.3796 4.25 13.25 4.25C10.1204 4.25 7.58333 6.78705 7.58333 9.91667C7.58333 13.0463 10.1204 15.5833 13.25 15.5833Z" stroke="white" stroke-width="2" stroke-linecap="round" stroke-linejoin="round"/>
<path d="M33.0833 29.7499V26.9166C33.0824 25.661 32.6645 24.4413 31.8953 23.449C31.126 22.4567 30.049 21.748 28.8333 21.4341" stroke="white" stroke-width="2" stroke-linecap="round" stroke-linejoin="round"/>
<path d="M23.1667 4.43408C24.3856 4.74618 25.466 5.45508 26.2375 6.44902C27.009 7.44297 27.4278 8.66542 27.4278 9.92367C27.4278 11.1819 27.009 12.4044 26.2375 13.3983C25.466 14.3923 24.3856 15.1012 23.1667 15.4132" stroke="white" stroke-width="2" stroke-linecap="round" stroke-linejoin="round"/>
</g>
<defs>
<clipPath id="clip0_17_456">
<rect width="34" height="34" fill="white" transform="translate(0.5)"/>
</clipPath>
</defs>
</svg>
